<?xml version="1.0" encoding="UTF-8" standalone="no"?>
<svg
   xmlns:dc="http://purl.org/dc/elements/1.1/"
   xmlns:cc="http://creativecommons.org/ns#"
   xmlns:rdf="http://www.w3.org/1999/02/22-rdf-syntax-ns#"
   xmlns:svg="http://www.w3.org/2000/svg"
   xmlns="http://www.w3.org/2000/svg"
   xmlns:sodipodi="http://sodipodi.sourceforge.net/DTD/sodipodi-0.dtd"
   xmlns:inkscape="http://www.inkscape.org/namespaces/inkscape"
   version="1.1"
   width="612"
   height="792"
   id="svg99"
   viewBox="0 0 612 792"
   sodipodi:docname="soundbide logo (1).cdr">
  <metadata
     id="metadata105">
    <rdf:RDF>
      <cc:Work
         rdf:about="">
        <dc:format>image/svg+xml</dc:format>
        <dc:type
           rdf:resource="http://purl.org/dc/dcmitype/StillImage" />
      </cc:Work>
    </rdf:RDF>
  </metadata>
  <defs
     id="defs103" />
  <sodipodi:namedview
     pagecolor="#ffffff"
     bordercolor="#666666"
     borderopacity="1"
     objecttolerance="10"
     gridtolerance="10"
     guidetolerance="10"
     inkscape:pageopacity="0"
     inkscape:pageshadow="2"
     inkscape:window-width="640"
     inkscape:window-height="480"
     id="namedview101" />
  <g
     id="Layer1000">
    <g
       id="Layer1001">
      <g
         id="Layer1002">
        <g
           id="Layer1003">
          <g
             id="Layer1004">
            <g
               id="Layer1005">
              <path
                 d="m 106.8761,318.6149 -22.6545,0.0431 c 0,0 -9.3233,0.3832 -11.2899,8.9133 0,0 -0.6044,2.5509 -0.1753,5.577 0.1916,0.4694 0.1753,6.0003 10.3828,9.7821 -0.1523,-0.1456 11.5265,2.2607 14.3255,3.3891 -0.159,-0.1389 6.3854,1.8315 6.4218,6.4716 -0.1418,0 2.2444,7.1642 -5.8317,7.9133 -25.5187,0 -25.5187,0 -25.5187,0 v 5.8116 l 23.7408,-0.2078 c 0,0 10.6289,-0.3305 13.2756,-7.5474 0.0431,-0.3142 4.1554,-11.8541 -6.7389,-16.5929 -0.3688,-0.2806 -9.8271,-2.5212 -18.9292,-5.6593 -0.3036,-0.1456 -6.7216,-1.3535 -4.6334,-8.8012 0,-0.1552 1.8057,-3.7359 6.578,-3.7359 0,-0.1484 21.1956,0 21.1956,0 z"
                 style="fill:#0073b6;fill-rule:evenodd"
                 id="path2" />
              <g
                 id="Layer1006">
                <path
                   d="m 205.394,347.7784 c 0,7.7744 -6.1383,14.0649 -13.7316,14.0649 -7.5742,0 -13.7249,-6.2905 -13.7249,-14.0649 v -29.8369 h -6.0693 v 29.7507 c 0,11.197 8.8607,20.2856 19.7942,20.2856 10.9527,0 19.8038,-9.0886 19.8038,-20.2856 v -29.7507 h -6.0722 z"
                   style="fill:#0073b6;fill-rule:evenodd"
                   id="path4" />
              </g>
              <g
                 id="Layer1007">
                <path
                   d="m 226.5542,338.1553 c 0,-7.7687 6.1574,-14.0755 13.744,-14.0755 7.5838,0 13.7259,6.3068 13.7259,14.0755 v 29.8225 h 6.0655 v -29.7469 c 0,-11.2104 -8.8607,-20.2894 -19.7914,-20.2894 -10.9431,0 -19.797,9.079 -19.797,20.2894 v 29.7469 h 6.053 z"
                   style="fill:#0073b6;fill-rule:evenodd"
                   id="path7" />
              </g>
              <g
                 id="Layer1008">
                <g
                   id="Layer1009">
                  <g
                     id="Layer1010">
                    <path
                       d="m 347.0599,317.3744 c -7.1317,0 -13.5075,3.3824 -17.8276,8.7093 v -29.8723 h -5.735 v 46.3991 h 0.007 c 0.0756,13.7967 10.5868,24.9448 23.5559,24.9448 13.0083,0 23.5559,-11.2238 23.5559,-25.0904 0,-13.8667 -10.5476,-25.0905 -23.5559,-25.0905 z m 0,44.3559 v 0 c -9.742,0 -17.6227,-8.6394 -17.6227,-19.2654 0,-10.6357 7.8807,-19.2463 17.6227,-19.2463 9.7218,0 17.6188,8.6106 17.6188,19.2463 0,10.626 -7.897,19.2654 -17.6188,19.2654 z"
                       style="fill:#e30016;fill-rule:evenodd"
                       id="path10" />
                  </g>
                </g>
                <path
                   d="m 329.4928,317.4865 c 0,0 -1.57,24.7341 1.2213,32.6014 l 1.0825,-18.4474 v -12.4643 z"
                   style="fill:#ffffff;fill-rule:evenodd"
                   id="path14" />
              </g>
              <g
                 id="Layer1011">
                <g
                   id="Layer1012">
                  <g
                     id="Layer1013">
                    <g
                       id="Layer1014">
                      <path
                         d="m 308.0328,249.8123 v 76.2839 c -4.3202,-5.3327 -10.6989,-8.7218 -17.8266,-8.7218 -13.0123,0 -23.5626,11.2238 -23.5626,25.0905 0,13.8666 10.5503,25.0904 23.5626,25.0904 12.9557,0 23.4696,-11.1481 23.5453,-24.9448 h 0.007 v -92.7982 z m -17.8266,111.918 v 0 c -9.7257,0 -17.6265,-8.6394 -17.6265,-19.2654 0,-10.6357 7.9008,-19.2463 17.6265,-19.2463 9.7352,0 17.6053,8.6106 17.6053,19.2463 0,10.626 -7.8701,19.2654 -17.6053,19.2654 z"
                         style="fill:#0073b6;fill-rule:evenodd"
                         id="path17" />
                    </g>
                  </g>
                  <path
                     d="m 307.7196,318.5488 c 0,0 1.5642,23.8433 -1.2415,31.427 l -1.0815,-17.8008 v -12.0054 z"
                     style="fill:#ffffff;fill-rule:evenodd"
                     id="path21" />
                </g>
                <path
                   d="m 308.0328,249.8123 c 0,0 0.865,-4.5079 2.1582,-6.6374 0.1322,-0.2241 0.7127,-1.2836 -0.5738,-1.8842 0,-0.2308 -0.0173,-2.7022 0.2308,-3.7684 -0.1226,-0.1159 0.5777,-0.2375 0.5777,-0.2375 l 0.2442,-1.0499 -0.1322,-0.8181 0.8219,-0.363 0.4818,-1.1715 0.1188,-1.0623 0.8248,-0.8258 0.3563,-0.7021 0.2347,-0.9378 v -0.4914 l 0.4646,-0.8123 0.4694,-0.5901 0.5939,-1.046 0.1188,-0.5978 0.5939,-0.7126 0.5805,-0.2347 0.1226,-0.5834 0.2203,-0.5881 c 0,0 3.5347,-2.5874 7.2044,-0.5901 0,-0.2251 0.6935,0.8247 0.6935,0.8247 l 0.6993,0.3535 0.591,0.8181 0.478,0.7126 0.343,2.2339 c 0,0 0.9512,1.3037 0.2442,1.4158 -0.7222,0.113 -0.7222,0.113 -0.7222,0.113 0,0 0.478,-1.1715 0,0 -0.4656,1.1811 -0.5777,1.6428 -0.5777,1.6428 0,0 -0.9272,-0.6964 -0.9272,0.1293 0,0.8248 0,1.1677 0,1.1677 l -0.9541,0.4751 c 0,0 0.5843,0.1092 -0.1149,0.9407 -0.7166,0.8219 -0.7166,0.8219 -0.7166,0.8219 l 0.2414,1.6495 -0.4722,1.0528 -1.046,0.591 0.1053,1.7759 -1.0594,0.2338 v 1.1782 l -0.5805,0.7127 c 0,0 -0.3535,0.9272 -2.1256,1.2836 -0.3458,0.34 -0.4713,0 -0.4713,0.8219 0,0 -2.8718,2.2213 -3.6142,4.756 0,0 -4.8345,0.5172 -5.7254,0 z"
                   style="fill:#0073b6;fill-rule:evenodd"
                   id="path24" />
              </g>
              <path
                 d="m 423.998,306.1113 h -5.7292 l 0.1619,49.8907 c 0,0 0,12.2526 22.232,9.9335 0.1782,0 -0.0891,-1.9905 -0.0891,-5.0003 -0.7356,0 -8.9229,0 -8.9229,0 0,0 -6.7226,1.3038 -7.4611,-7.4611 0,-27.2093 0,-27.2093 0,-27.2093 0,0 -0.1916,-2.4188 1.867,-2.2406 12.4949,0 14.336,0 14.336,0 0,0 0,-2.1514 0,-5.7819 h -13.9194 c 0,0 -1.7625,0.1322 -2.5547,-1.822 0.1983,-0.9234 0.0795,-10.309 0.0795,-10.309 z"
                 style="fill:#e30016;fill-rule:evenodd"
                 id="path27" />
              <path
                 d="m 388.9645,353.4741 c 0.7222,8.7649 7.4448,7.4611 7.4448,7.4611 0,0 8.1873,0 8.9325,0 0,3.0098 0.2644,5.0003 0.0699,5.0003 -22.2167,2.3191 -22.2167,-9.9335 -22.2167,-9.9335 l -0.1581,-37.2779 h 5.7226 z"
                 style="fill:#e30016;fill-rule:evenodd"
                 id="path29" />
              <path
                 d="M 389.0267,310.6221 H 382.466 V 304.89 h 6.5607 z"
                 style="fill:#e30016;fill-rule:evenodd"
                 id="path31" />
              <g
                 id="Layer1015">
                <g
                   id="Layer1016">
                  <path
                     d="m 487.2113,343.0454 c -0.2376,10.3099 -8.6729,18.5997 -19.0586,18.5997 -10.5168,0 -19.0642,-8.5369 -19.0642,-19.0653 0,-10.5331 8.5474,-19.0642 19.0642,-19.0642 5.0099,0 9.5274,1.957 12.927,5.1056 -0.9407,0.637 -28.4862,19.2894 -28.2065,19.662 0.3372,1.4752 2.6601,4.689 2.6601,4.689 l 29.4863,-19.2789 c 0.003,0.003 0.007,0.01 0.01,0.0134 l 4.9935,-3.2837 c -4.277,-7.6757 -12.4643,-12.8666 -21.87,-12.8666 -13.8044,0 -25.008,11.2037 -25.008,25.0234 0,13.8083 11.2036,25.0215 25.008,25.0215 13.6751,0 24.761,-10.9623 25.0282,-24.5559 z"
                     style="fill:#e30016;fill-rule:evenodd"
                     id="path33" />
                </g>
              </g>
            </g>
            <g
               id="Layer1017">
              <path
                 d="m 163.9147,338.7089 c 0.2577,1.4264 0.41,2.8948 0.41,4.4131 0,13.4605 -10.9106,24.3673 -24.3586,24.3673 -13.4577,0 -24.3673,-10.9068 -24.3673,-24.3673 0,-10.3693 6.4745,-19.1802 15.589,-22.7053 -0.0488,-0.2739 -0.0785,-0.5278 -0.0987,-0.7682 -9.4976,3.5902 -16.2556,12.7248 -16.2556,23.4735 0,13.8695 11.2563,25.1326 25.1326,25.1326 13.8772,0 25.1106,-11.2631 25.1106,-25.1326 0,-1.707 -0.1686,-3.3728 -0.4982,-4.9936 -0.2241,0.2146 -0.4492,0.3803 -0.6638,0.5805 z"
                 style="fill:#e30016;fill-rule:evenodd"
                 id="path38" />
              <path
                 d="m 164.9847,338.4618 c 0.2835,1.5116 0.4416,3.0461 0.4416,4.6267 0,14.0649 -11.3953,25.4602 -25.4602,25.4602 -14.0679,0 -25.4669,-11.3953 -25.4669,-25.4602 0,-10.8244 6.7618,-20.0509 16.293,-23.7341 -0.046,-0.2739 -0.0795,-0.5508 -0.1054,-0.7989 -9.9201,3.7426 -16.9789,13.2996 -16.9789,24.533 0,14.4912 11.7545,26.2524 26.2582,26.2524 14.4941,0 26.2428,-11.7612 26.2428,-26.2524 0,-1.7856 -0.1782,-3.528 -0.5154,-5.2139 -0.2404,0.2174 -0.4684,0.3956 -0.7088,0.5872 z"
                 style="fill:#e30016;fill-rule:evenodd"
                 id="path40" />
              <path
                 d="m 165.4895,338.3535 c 0.2797,1.5346 0.455,3.1017 0.455,4.712 0,14.3523 -11.6395,25.9784 -25.9784,25.9784 -14.3485,0 -25.9775,-11.6261 -25.9775,-25.9784 0,-11.0322 6.8998,-20.4437 16.612,-24.2025 -0.0431,-0.2807 -0.0728,-0.5613 -0.0958,-0.8257 -10.1145,3.8355 -17.3189,13.5668 -17.3189,25.0282 0,14.791 11.9834,26.7735 26.7802,26.7735 14.7949,0 26.7706,-11.9825 26.7706,-26.7735 0,-1.8181 -0.1782,-3.5998 -0.5316,-5.3164 -0.2376,0.2213 -0.4819,0.4157 -0.7156,0.6044 z"
                 style="fill:#e30016;fill-rule:evenodd"
                 id="path42" />
              <path
                 d="m 163.3639,343.122 c 0,12.926 -10.4747,23.4141 -23.3978,23.4141 -12.9366,0 -23.4036,-10.4881 -23.4036,-23.4141 0,-9.9105 6.1545,-18.3525 14.837,-21.7579 -0.0431,-0.1648 -0.0862,-0.3199 -0.1255,-0.4617 -8.8836,3.4782 -15.1905,12.1079 -15.1905,22.2196 0,13.1866 10.6893,23.8893 23.8826,23.8893 13.1875,0 23.8768,-10.7027 23.8768,-23.8893 0,-1.3899 -0.1389,-2.7463 -0.3736,-4.0826 -0.1485,0.1121 -0.2903,0.2175 -0.4292,0.3132 0.1983,1.2252 0.3238,2.4753 0.3238,3.7694 z"
                 style="fill:#e30016;fill-rule:evenodd"
                 id="path44" />
              <path
                 d="m 161.5056,343.122 c 0,11.903 -9.6394,21.552 -21.5395,21.552 -11.9068,0 -21.5491,-9.649 -21.5491,-21.552 0,-9.1221 5.6756,-16.9032 13.6952,-20.048 -0.2251,-0.4359 -0.4224,-0.8612 -0.568,-1.2779 -8.4938,3.3604 -14.52,11.63 -14.52,21.3259 0,12.675 10.263,22.9448 22.9419,22.9448 12.6625,0 22.9256,-10.2698 22.9256,-22.9448 0,-1.1888 -0.1188,-2.367 -0.2864,-3.5184 -0.4493,0.251 -0.8813,0.4751 -1.32,0.6207 0.135,0.9464 0.2203,1.9072 0.2203,2.8977 z"
                 style="fill:#e30016;fill-rule:evenodd"
                 id="path46" />
              <path
                 d="m 157.5398,340.6995 c 0.1179,0.7883 0.1811,1.5901 0.1811,2.4225 0,9.8176 -7.9468,17.7673 -17.7548,17.7673 -9.8176,0 -17.7778,-7.9497 -17.7778,-17.7673 0,-7.8874 5.1554,-14.5736 12.2698,-16.8869 -0.8813,-0.8938 -1.5346,-1.7588 -2.0355,-2.5941 -7.8012,3.0395 -13.359,10.5935 -13.359,19.481 0,11.5399 9.3654,20.9025 20.9025,20.9025 11.5437,0 20.8929,-9.3626 20.8929,-20.9025 0,-0.9081 -0.0824,-1.7989 -0.1916,-2.6831 -1.1121,0.3065 -2.1744,0.3631 -3.1276,0.2606 z"
                 style="fill:#e30016;fill-rule:evenodd"
                 id="path48" />
              <path
                 d="m 156.8463,343.122 c 0,9.3224 -7.5607,16.8965 -16.8802,16.8965 -9.3291,0 -16.8966,-7.5741 -16.8966,-16.8965 0,-7.4027 4.7695,-13.6722 11.4087,-15.9626 -0.0163,-0.2117 -0.0201,-0.3898 -0.0201,-0.5345 -6.9132,2.3067 -11.9029,8.8109 -11.9029,16.4971 0,9.6126 7.7983,17.4042 17.4109,17.4042 9.6135,0 17.4051,-7.7916 17.4051,-17.4042 0,-0.8516 -0.0862,-1.6763 -0.2049,-2.502 -0.1782,-0.023 -0.3631,-0.0422 -0.5384,-0.0719 0.1389,0.8276 0.2184,1.6926 0.2184,2.5739 z"
                 style="fill:#e30016;fill-rule:evenodd"
                 id="path50" />
              <path
                 d="m 153.3183,339.0758 c -2.6237,1.0231 -4.7426,0.9531 -6.4122,0.4426 0.5709,1.0757 0.9177,2.2932 0.9177,3.6036 0,4.3422 -3.5146,7.8635 -7.8577,7.8635 -4.3489,0 -7.8702,-3.5213 -7.8702,-7.8635 0,-4.3431 3.5213,-7.8615 7.8702,-7.8615 0.1983,0 0.4157,0.0431 0.6178,0.0594 -4.5874,-1.4743 -5.7982,-5.4975 -6.0597,-7.6365 -6.372,2.2444 -10.9527,8.307 -10.9527,15.4386 0,9.0513 7.3395,16.3841 16.3946,16.3841 9.0426,0 16.3754,-7.3328 16.3754,-16.3841 0,-0.9244 -0.0987,-1.8258 -0.2376,-2.7195 -1.7395,-0.4952 -2.8517,-1.3267 -2.7856,-1.3267 z"
                 style="fill:#e30016;fill-rule:evenodd"
                 id="path52" />
              <g
                 id="Layer1018">
                <g
                   id="Layer1019">
                  <g
                     id="Layer1020">
                    <path
                       d="m 124.1989,326.8328 c -0.3142,0 -0.5776,0.2567 -0.5776,0.5834 0,0.3209 0.2634,0.5776 0.5776,0.5776 0.32,0 0.5872,-0.2567 0.5872,-0.5776 0,-0.3267 -0.2672,-0.5834 -0.5872,-0.5834 z m 0,0.9933 v 0 c -0.2251,0 -0.4224,-0.1753 -0.4224,-0.4099 0,-0.2338 0.1973,-0.4254 0.4224,-0.4254 0.2338,0 0.4253,0.1916 0.4253,0.4254 0,0.2346 -0.1915,0.4099 -0.4253,0.4099 z"
                       style="fill:#ffffff;fill-rule:evenodd"
                       id="path54" />
                  </g>
                </g>
                <g
                   id="Layer1021">
                  <g
                     id="Layer1022">
                    <path
                       d="m 117.7273,342.7053 c -0.3171,0 -0.5843,0.2615 -0.5843,0.5748 0,0.3237 0.2672,0.591 0.5843,0.591 0.3295,0 0.5805,-0.2673 0.5805,-0.591 0,-0.3133 -0.251,-0.5748 -0.5805,-0.5748 z m 0,1.0039 v 0 c -0.228,0 -0.4129,-0.1945 -0.4129,-0.4291 0,-0.228 0.1849,-0.4196 0.4129,-0.4196 0.2376,0 0.4253,0.1916 0.4253,0.4196 0,0.2346 -0.1877,0.4291 -0.4253,0.4291 z"
                       style="fill:#ffffff;fill-rule:evenodd"
                       id="path58" />
                  </g>
                </g>
                <g
                   id="Layer1023">
                  <g
                     id="Layer1024">
                    <path
                       d="m 124.2909,358.3585 c -0.3429,0 -0.591,0.2634 -0.591,0.5671 0,0.3371 0.2481,0.591 0.591,0.591 0.3065,0 0.5642,-0.2539 0.5642,-0.591 0,-0.3037 -0.2577,-0.5671 -0.5642,-0.5671 z m 0,1 v 0 c -0.2443,0 -0.4387,-0.1954 -0.4387,-0.4329 0,-0.2108 0.1944,-0.4091 0.4387,-0.4091 0.2146,0 0.4061,0.1983 0.4061,0.4091 0,0.2375 -0.1915,0.4329 -0.4061,0.4329 z"
                       style="fill:#ffffff;fill-rule:evenodd"
                       id="path62" />
                  </g>
                </g>
                <g
                   id="Layer1025">
                  <g
                     id="Layer1026">
                    <path
                       d="m 140.0456,364.8129 c -0.3295,0 -0.5843,0.2672 -0.5843,0.591 0,0.3132 0.2548,0.5776 0.5843,0.5776 0.317,0 0.5776,-0.2644 0.5776,-0.5776 0,-0.3238 -0.2606,-0.591 -0.5776,-0.591 z m 0,1.0134 v 0 c -0.2309,0 -0.4225,-0.1944 -0.4225,-0.4224 0,-0.2414 0.1916,-0.4196 0.4225,-0.4196 0.2337,0 0.4186,0.1782 0.4186,0.4196 0,0.228 -0.1849,0.4224 -0.4186,0.4224 z"
                       style="fill:#ffffff;fill-rule:evenodd"
                       id="path66" />
                  </g>
                </g>
                <g
                   id="Layer1027">
                  <g
                     id="Layer1028">
                    <path
                       d="m 155.6844,358.325 c -0.3161,0 -0.5776,0.2576 -0.5776,0.5642 0,0.3304 0.2615,0.591 0.5776,0.591 0.3362,0 0.5881,-0.2606 0.5881,-0.591 0,-0.3066 -0.2519,-0.5642 -0.5881,-0.5642 z m 0,0.9904 v 0 c -0.2242,0 -0.4158,-0.1848 -0.4158,-0.4262 0,-0.2242 0.1916,-0.4091 0.4158,-0.4091 0.2414,0 0.4224,0.1849 0.4224,0.4091 0,0.2414 -0.181,0.4262 -0.4224,0.4262 z"
                       style="fill:#ffffff;fill-rule:evenodd"
                       id="path70" />
                  </g>
                </g>
                <g
                   id="Layer1029">
                  <g
                     id="Layer1030">
                    <path
                       d="m 162.2183,342.7321 c -0.3229,0 -0.5738,0.2644 -0.5738,0.5939 0,0.3267 0.2509,0.5844 0.5738,0.5844 0.3209,0 0.5814,-0.2577 0.5814,-0.5844 0,-0.3295 -0.2605,-0.5939 -0.5814,-0.5939 z m 0,1.0068 v 0 c -0.2309,0 -0.4186,-0.1715 -0.4186,-0.4129 0,-0.2375 0.1877,-0.4291 0.4186,-0.4291 0.2375,0 0.4128,0.1916 0.4128,0.4291 0,0.2414 -0.1753,0.4129 -0.4128,0.4129 z"
                       style="fill:#ffffff;fill-rule:evenodd"
                       id="path74" />
                  </g>
                </g>
              </g>
              <path
                 d="m 146.8209,343.122 c 0,3.7981 -3.073,6.8634 -6.8548,6.8634 -3.7981,0 -6.8644,-3.0653 -6.8644,-6.8634 0,-3.7856 3.0663,-6.8615 6.8644,-6.8615 1.1456,0 2.2147,0.3104 3.1649,0.8056 -0.2471,-0.2672 -0.4426,-0.5287 -0.6073,-0.7491 -0.798,-0.3007 -1.6601,-0.4923 -2.5576,-0.4923 -4.0357,0 -7.2964,3.2741 -7.2964,7.2973 0,4.0318 3.2607,7.2964 7.2964,7.2964 4.0232,0 7.2734,-3.2646 7.2734,-7.2964 0,-1.4426 -0.4186,-2.7693 -1.1352,-3.9044 -0.317,-0.1351 -0.6006,-0.2769 -0.8649,-0.4387 0.977,1.1973 1.5815,2.6831 1.5815,4.3431 z"
                 style="fill:#e30016;fill-rule:evenodd"
                 id="path79" />
              <path
                 d="m 133.5117,343.122 c 0,3.5701 2.8843,6.4678 6.4544,6.4678 3.5643,0 6.4457,-2.8977 6.4457,-6.4678 0,-3.5615 -2.8814,-6.4486 -6.4457,-6.4486 -3.5701,0 -6.4544,2.8871 -6.4544,6.4486 z"
                 style="fill:#e30016;fill-rule:evenodd"
                 id="path81" />
              <path
                 d="m 145.2394,338.7789 c -0.5834,-0.7031 -1.2932,-1.2769 -2.1084,-1.7128 0.5048,0.5681 1.2012,1.2012 2.1084,1.7128 z"
                 style="fill:#e30016;fill-rule:evenodd"
                 id="path83" />
            </g>
          </g>
        </g>
        <g
           id="Layer1031">
          <g
             id="Layer1032">
            <path
               d="m 488.0494,298.61 v -8.6461 h -3.0892 v -1.752 h 8.2562 v 1.752 h -3.0749 v 8.6461 z"
               style="fill:#0073b6;fill-rule:evenodd"
               id="path88" />
            <path
               d="m 494.5431,298.61 v -10.3981 h 3.1486 l 1.8842,7.078 1.8651,-7.078 h 3.1611 V 298.61 h -1.9637 v -8.1844 l -2.0586,8.1844 h -2.0231 l -2.0461,-8.1844 v 8.1844 z"
               style="fill:#0073b6;fill-rule:evenodd"
               id="path90" />
          </g>
          <path
             d="m 494.8103,277.3243 c -8.5761,0 -15.5228,6.9439 -15.5228,15.5076 0,8.5608 6.9467,15.5104 15.5228,15.5104 8.558,0 15.4913,-6.9496 15.4913,-15.5104 0,-8.5637 -6.9333,-15.5076 -15.4913,-15.5076 z m 0,29.2124 v 0 c -7.577,0 -13.7249,-6.1383 -13.7249,-13.7048 0,-7.5838 6.1479,-13.7153 13.7249,-13.7153 7.5675,0 13.7058,6.1315 13.7058,13.7153 0,7.5665 -6.1383,13.7048 -13.7058,13.7048 z"
             style="fill:#0073b6;fill-rule:evenodd"
             id="path93" />
        </g>
      </g>
    </g>
  </g>
</svg>
